<mxfile host="Electron" agent="Mozilla/5.0 (Windows NT 10.0; Win64; x64) AppleWebKit/537.36 (KHTML, like Gecko) draw.io/24.7.8 Chrome/128.0.6613.36 Electron/32.0.1 Safari/537.36" version="24.7.8">
  <diagram name="Page-1" id="gDMP0SHU5PY3-WDLyym-">
    <mxGraphModel dx="2586" dy="1304" grid="1" gridSize="10" guides="1" tooltips="1" connect="1" arrows="1" fold="1" page="1" pageScale="1" pageWidth="850" pageHeight="1100" math="0" shadow="0">
      <root>
        <mxCell id="0" />
        <mxCell id="1" parent="0" />
        <mxCell id="Y6VR4jYJrnsZBAmpRnje-1" value="Клиент" style="rounded=0;whiteSpace=wrap;html=1;" vertex="1" parent="1">
          <mxGeometry x="130" y="140" width="120" height="60" as="geometry" />
        </mxCell>
        <mxCell id="Y6VR4jYJrnsZBAmpRnje-2" value="Подписка" style="rounded=0;whiteSpace=wrap;html=1;" vertex="1" parent="1">
          <mxGeometry x="-291.26" y="140" width="120" height="60" as="geometry" />
        </mxCell>
        <mxCell id="Y6VR4jYJrnsZBAmpRnje-3" value="Тренер" style="rounded=0;whiteSpace=wrap;html=1;" vertex="1" parent="1">
          <mxGeometry x="130" y="370" width="120" height="60" as="geometry" />
        </mxCell>
        <mxCell id="Y6VR4jYJrnsZBAmpRnje-4" value="Тренажерный зал" style="rounded=0;whiteSpace=wrap;html=1;" vertex="1" parent="1">
          <mxGeometry x="815" y="265" width="120" height="60" as="geometry" />
        </mxCell>
        <mxCell id="Y6VR4jYJrnsZBAmpRnje-5" value="Оборудование" style="rounded=0;whiteSpace=wrap;html=1;" vertex="1" parent="1">
          <mxGeometry x="815" y="545" width="120" height="60" as="geometry" />
        </mxCell>
        <mxCell id="Y6VR4jYJrnsZBAmpRnje-7" value="Идентификатор&lt;span style=&quot;color: rgba(0, 0, 0, 0); font-family: monospace; font-size: 0px; text-align: start; text-wrap: nowrap;&quot;&gt;%3CmxGraphModel%3E%3Croot%3E%3CmxCell%20id%3D%220%22%2F%3E%3CmxCell%20id%3D%221%22%20parent%3D%220%22%2F%3E%3CmxCell%20id%3D%222%22%20value%3D%22%D0%9F%D0%BE%D0%B4%D0%BF%D0%B8%D1%81%D0%BA%D0%B0%22%20style%3D%22rounded%3D0%3BwhiteSpace%3Dwrap%3Bhtml%3D1%3B%22%20vertex%3D%221%22%20parent%3D%221%22%3E%3CmxGeometry%20x%3D%22120%22%20y%3D%22390%22%20width%3D%22120%22%20height%3D%2260%22%20as%3D%22geometry%22%2F%3E%3C%2FmxCell%3E%3C%2Froot%3E%3C%2FmxGraphModel%3E&lt;/span&gt;" style="ellipse;whiteSpace=wrap;html=1;" vertex="1" parent="1">
          <mxGeometry x="20" y="30" width="90" height="60" as="geometry" />
        </mxCell>
        <mxCell id="Y6VR4jYJrnsZBAmpRnje-8" value="Имя" style="ellipse;whiteSpace=wrap;html=1;" vertex="1" parent="1">
          <mxGeometry x="142.51" y="28.340000000000003" width="94.99" height="63.33" as="geometry" />
        </mxCell>
        <mxCell id="Y6VR4jYJrnsZBAmpRnje-9" value="Возраст" style="ellipse;whiteSpace=wrap;html=1;" vertex="1" parent="1">
          <mxGeometry x="270" y="28.340000000000003" width="94.99" height="63.33" as="geometry" />
        </mxCell>
        <mxCell id="Y6VR4jYJrnsZBAmpRnje-10" value="Владеет" style="rhombus;whiteSpace=wrap;html=1;" vertex="1" parent="1">
          <mxGeometry x="-90" y="130" width="130" height="80" as="geometry" />
        </mxCell>
        <mxCell id="Y6VR4jYJrnsZBAmpRnje-11" value="Дата окончания" style="ellipse;whiteSpace=wrap;html=1;" vertex="1" parent="1">
          <mxGeometry x="-360" y="30.000000000000004" width="94.99" height="63.33" as="geometry" />
        </mxCell>
        <mxCell id="Y6VR4jYJrnsZBAmpRnje-17" value="" style="endArrow=none;html=1;rounded=0;exitX=0.5;exitY=0;exitDx=0;exitDy=0;entryX=0.5;entryY=1;entryDx=0;entryDy=0;" edge="1" parent="1" source="Y6VR4jYJrnsZBAmpRnje-1" target="Y6VR4jYJrnsZBAmpRnje-7">
          <mxGeometry width="50" height="50" relative="1" as="geometry">
            <mxPoint x="190" y="120" as="sourcePoint" />
            <mxPoint x="80" y="110" as="targetPoint" />
          </mxGeometry>
        </mxCell>
        <mxCell id="Y6VR4jYJrnsZBAmpRnje-18" value="" style="endArrow=none;html=1;rounded=0;exitX=0.5;exitY=0;exitDx=0;exitDy=0;entryX=0.5;entryY=1;entryDx=0;entryDy=0;" edge="1" parent="1" source="Y6VR4jYJrnsZBAmpRnje-1" target="Y6VR4jYJrnsZBAmpRnje-9">
          <mxGeometry width="50" height="50" relative="1" as="geometry">
            <mxPoint x="250" y="140" as="sourcePoint" />
            <mxPoint x="300" y="90" as="targetPoint" />
          </mxGeometry>
        </mxCell>
        <mxCell id="Y6VR4jYJrnsZBAmpRnje-19" value="" style="endArrow=none;html=1;rounded=0;entryX=0.5;entryY=1;entryDx=0;entryDy=0;" edge="1" parent="1" target="Y6VR4jYJrnsZBAmpRnje-8">
          <mxGeometry width="50" height="50" relative="1" as="geometry">
            <mxPoint x="190" y="140" as="sourcePoint" />
            <mxPoint x="300" y="90" as="targetPoint" />
          </mxGeometry>
        </mxCell>
        <mxCell id="Y6VR4jYJrnsZBAmpRnje-20" value="" style="endArrow=none;html=1;rounded=0;exitX=0.5;exitY=0;exitDx=0;exitDy=0;entryX=0.5;entryY=1;entryDx=0;entryDy=0;" edge="1" parent="1" source="Y6VR4jYJrnsZBAmpRnje-2" target="Y6VR4jYJrnsZBAmpRnje-11">
          <mxGeometry width="50" height="50" relative="1" as="geometry">
            <mxPoint x="-310" y="80" as="sourcePoint" />
            <mxPoint x="-260" y="30" as="targetPoint" />
          </mxGeometry>
        </mxCell>
        <mxCell id="Y6VR4jYJrnsZBAmpRnje-22" value="Является" style="rhombus;whiteSpace=wrap;html=1;" vertex="1" parent="1">
          <mxGeometry x="125.00999999999999" y="250" width="130" height="80" as="geometry" />
        </mxCell>
        <mxCell id="Y6VR4jYJrnsZBAmpRnje-23" value="" style="endArrow=none;html=1;rounded=0;exitX=0.5;exitY=1;exitDx=0;exitDy=0;entryX=0.5;entryY=0;entryDx=0;entryDy=0;" edge="1" parent="1" source="Y6VR4jYJrnsZBAmpRnje-1" target="Y6VR4jYJrnsZBAmpRnje-22">
          <mxGeometry width="50" height="50" relative="1" as="geometry">
            <mxPoint x="320" y="220" as="sourcePoint" />
            <mxPoint x="370" y="170" as="targetPoint" />
          </mxGeometry>
        </mxCell>
        <mxCell id="Y6VR4jYJrnsZBAmpRnje-24" value="" style="endArrow=none;html=1;rounded=0;exitX=0.5;exitY=1;exitDx=0;exitDy=0;entryX=0.5;entryY=0;entryDx=0;entryDy=0;" edge="1" parent="1" source="Y6VR4jYJrnsZBAmpRnje-22" target="Y6VR4jYJrnsZBAmpRnje-3">
          <mxGeometry width="50" height="50" relative="1" as="geometry">
            <mxPoint x="320" y="380" as="sourcePoint" />
            <mxPoint x="370" y="330" as="targetPoint" />
          </mxGeometry>
        </mxCell>
        <mxCell id="Y6VR4jYJrnsZBAmpRnje-25" value="Стоимость часа" style="ellipse;whiteSpace=wrap;html=1;" vertex="1" parent="1">
          <mxGeometry x="142.51000000000002" y="470" width="94.99" height="63.33" as="geometry" />
        </mxCell>
        <mxCell id="Y6VR4jYJrnsZBAmpRnje-26" value="" style="endArrow=none;html=1;rounded=0;exitX=0.5;exitY=1;exitDx=0;exitDy=0;entryX=0.5;entryY=0;entryDx=0;entryDy=0;" edge="1" parent="1" source="Y6VR4jYJrnsZBAmpRnje-3" target="Y6VR4jYJrnsZBAmpRnje-25">
          <mxGeometry width="50" height="50" relative="1" as="geometry">
            <mxPoint x="340" y="400" as="sourcePoint" />
            <mxPoint x="390" y="350" as="targetPoint" />
          </mxGeometry>
        </mxCell>
        <mxCell id="Y6VR4jYJrnsZBAmpRnje-27" value="Идентификатор" style="ellipse;whiteSpace=wrap;html=1;" vertex="1" parent="1">
          <mxGeometry x="-194.99" y="30.000000000000004" width="94.99" height="63.33" as="geometry" />
        </mxCell>
        <mxCell id="Y6VR4jYJrnsZBAmpRnje-28" value="" style="endArrow=none;html=1;rounded=0;entryX=0.5;entryY=1;entryDx=0;entryDy=0;" edge="1" parent="1" target="Y6VR4jYJrnsZBAmpRnje-27">
          <mxGeometry width="50" height="50" relative="1" as="geometry">
            <mxPoint x="-230.26" y="140" as="sourcePoint" />
            <mxPoint x="-260" y="130" as="targetPoint" />
          </mxGeometry>
        </mxCell>
        <mxCell id="Y6VR4jYJrnsZBAmpRnje-31" value="Идентификатор" style="ellipse;whiteSpace=wrap;html=1;" vertex="1" parent="1">
          <mxGeometry x="955" y="325" width="94.99" height="63.33" as="geometry" />
        </mxCell>
        <mxCell id="Y6VR4jYJrnsZBAmpRnje-32" value="Локация" style="ellipse;whiteSpace=wrap;html=1;" vertex="1" parent="1">
          <mxGeometry x="955" y="201.67" width="94.99" height="63.33" as="geometry" />
        </mxCell>
        <mxCell id="Y6VR4jYJrnsZBAmpRnje-33" value="Содержит" style="rhombus;whiteSpace=wrap;html=1;" vertex="1" parent="1">
          <mxGeometry x="810" y="395" width="130" height="80" as="geometry" />
        </mxCell>
        <mxCell id="Y6VR4jYJrnsZBAmpRnje-34" value="" style="endArrow=none;html=1;rounded=0;entryX=0;entryY=0.5;entryDx=0;entryDy=0;exitX=1;exitY=0.5;exitDx=0;exitDy=0;" edge="1" parent="1" source="Y6VR4jYJrnsZBAmpRnje-4" target="Y6VR4jYJrnsZBAmpRnje-32">
          <mxGeometry width="50" height="50" relative="1" as="geometry">
            <mxPoint x="695" y="345" as="sourcePoint" />
            <mxPoint x="745" y="295" as="targetPoint" />
          </mxGeometry>
        </mxCell>
        <mxCell id="Y6VR4jYJrnsZBAmpRnje-35" value="" style="endArrow=none;html=1;rounded=0;entryX=0;entryY=0.5;entryDx=0;entryDy=0;exitX=1;exitY=0.5;exitDx=0;exitDy=0;" edge="1" parent="1" source="Y6VR4jYJrnsZBAmpRnje-4" target="Y6VR4jYJrnsZBAmpRnje-31">
          <mxGeometry width="50" height="50" relative="1" as="geometry">
            <mxPoint x="695" y="345" as="sourcePoint" />
            <mxPoint x="745" y="295" as="targetPoint" />
          </mxGeometry>
        </mxCell>
        <mxCell id="Y6VR4jYJrnsZBAmpRnje-36" value="Идентификатор" style="ellipse;whiteSpace=wrap;html=1;" vertex="1" parent="1">
          <mxGeometry x="955" y="481.66999999999996" width="94.99" height="63.33" as="geometry" />
        </mxCell>
        <mxCell id="Y6VR4jYJrnsZBAmpRnje-37" value="Наименование" style="ellipse;whiteSpace=wrap;html=1;" vertex="1" parent="1">
          <mxGeometry x="955" y="605" width="94.99" height="63.33" as="geometry" />
        </mxCell>
        <mxCell id="Y6VR4jYJrnsZBAmpRnje-38" value="" style="endArrow=none;html=1;rounded=0;entryX=0;entryY=0.5;entryDx=0;entryDy=0;exitX=1;exitY=0.5;exitDx=0;exitDy=0;" edge="1" parent="1" source="Y6VR4jYJrnsZBAmpRnje-5" target="Y6VR4jYJrnsZBAmpRnje-36">
          <mxGeometry width="50" height="50" relative="1" as="geometry">
            <mxPoint x="695" y="475" as="sourcePoint" />
            <mxPoint x="745" y="425" as="targetPoint" />
          </mxGeometry>
        </mxCell>
        <mxCell id="Y6VR4jYJrnsZBAmpRnje-39" value="" style="endArrow=none;html=1;rounded=0;entryX=0;entryY=0.5;entryDx=0;entryDy=0;exitX=1;exitY=0.5;exitDx=0;exitDy=0;" edge="1" parent="1" source="Y6VR4jYJrnsZBAmpRnje-5" target="Y6VR4jYJrnsZBAmpRnje-37">
          <mxGeometry width="50" height="50" relative="1" as="geometry">
            <mxPoint x="955" y="585" as="sourcePoint" />
            <mxPoint x="745" y="425" as="targetPoint" />
          </mxGeometry>
        </mxCell>
        <mxCell id="Y6VR4jYJrnsZBAmpRnje-40" value="" style="endArrow=none;html=1;rounded=0;entryX=0.5;entryY=1;entryDx=0;entryDy=0;exitX=0.5;exitY=0;exitDx=0;exitDy=0;" edge="1" parent="1" source="Y6VR4jYJrnsZBAmpRnje-33" target="Y6VR4jYJrnsZBAmpRnje-4">
          <mxGeometry width="50" height="50" relative="1" as="geometry">
            <mxPoint x="705" y="475" as="sourcePoint" />
            <mxPoint x="755" y="425" as="targetPoint" />
          </mxGeometry>
        </mxCell>
        <mxCell id="Y6VR4jYJrnsZBAmpRnje-41" value="" style="endArrow=none;html=1;rounded=0;entryX=0.5;entryY=1;entryDx=0;entryDy=0;exitX=0.5;exitY=0;exitDx=0;exitDy=0;" edge="1" parent="1" source="Y6VR4jYJrnsZBAmpRnje-5" target="Y6VR4jYJrnsZBAmpRnje-33">
          <mxGeometry width="50" height="50" relative="1" as="geometry">
            <mxPoint x="705" y="475" as="sourcePoint" />
            <mxPoint x="755" y="425" as="targetPoint" />
          </mxGeometry>
        </mxCell>
        <mxCell id="Y6VR4jYJrnsZBAmpRnje-42" value="Тренировка" style="rounded=0;whiteSpace=wrap;html=1;" vertex="1" parent="1">
          <mxGeometry x="465" y="261.67" width="120" height="60" as="geometry" />
        </mxCell>
        <mxCell id="Y6VR4jYJrnsZBAmpRnje-43" value="Запланирована в" style="rhombus;whiteSpace=wrap;html=1;" vertex="1" parent="1">
          <mxGeometry x="640" y="255.00000000000003" width="130" height="80" as="geometry" />
        </mxCell>
        <mxCell id="Y6VR4jYJrnsZBAmpRnje-45" value="Тренируется" style="rhombus;whiteSpace=wrap;html=1;" vertex="1" parent="1">
          <mxGeometry x="460" y="131.67" width="130" height="80" as="geometry" />
        </mxCell>
        <mxCell id="Y6VR4jYJrnsZBAmpRnje-46" value="Тренирует" style="rhombus;whiteSpace=wrap;html=1;" vertex="1" parent="1">
          <mxGeometry x="460" y="361.67" width="130" height="80" as="geometry" />
        </mxCell>
        <mxCell id="Y6VR4jYJrnsZBAmpRnje-47" value="" style="endArrow=none;html=1;rounded=0;entryX=1;entryY=0.5;entryDx=0;entryDy=0;" edge="1" parent="1" source="Y6VR4jYJrnsZBAmpRnje-45" target="Y6VR4jYJrnsZBAmpRnje-1">
          <mxGeometry width="50" height="50" relative="1" as="geometry">
            <mxPoint x="440" y="310" as="sourcePoint" />
            <mxPoint x="490" y="260" as="targetPoint" />
          </mxGeometry>
        </mxCell>
        <mxCell id="Y6VR4jYJrnsZBAmpRnje-48" value="" style="endArrow=none;html=1;rounded=0;entryX=0.5;entryY=1;entryDx=0;entryDy=0;exitX=0.5;exitY=0;exitDx=0;exitDy=0;" edge="1" parent="1" source="Y6VR4jYJrnsZBAmpRnje-42" target="Y6VR4jYJrnsZBAmpRnje-45">
          <mxGeometry width="50" height="50" relative="1" as="geometry">
            <mxPoint x="480" y="311.67" as="sourcePoint" />
            <mxPoint x="530" y="261.67" as="targetPoint" />
          </mxGeometry>
        </mxCell>
        <mxCell id="Y6VR4jYJrnsZBAmpRnje-49" value="" style="endArrow=none;html=1;rounded=0;entryX=0.5;entryY=0;entryDx=0;entryDy=0;exitX=0.5;exitY=1;exitDx=0;exitDy=0;" edge="1" parent="1" source="Y6VR4jYJrnsZBAmpRnje-42" target="Y6VR4jYJrnsZBAmpRnje-46">
          <mxGeometry width="50" height="50" relative="1" as="geometry">
            <mxPoint x="480" y="311.67" as="sourcePoint" />
            <mxPoint x="530" y="261.67" as="targetPoint" />
          </mxGeometry>
        </mxCell>
        <mxCell id="Y6VR4jYJrnsZBAmpRnje-50" value="" style="endArrow=none;html=1;rounded=0;exitX=1;exitY=0.5;exitDx=0;exitDy=0;" edge="1" parent="1" source="Y6VR4jYJrnsZBAmpRnje-3" target="Y6VR4jYJrnsZBAmpRnje-46">
          <mxGeometry width="50" height="50" relative="1" as="geometry">
            <mxPoint x="440" y="310" as="sourcePoint" />
            <mxPoint x="490" y="260" as="targetPoint" />
          </mxGeometry>
        </mxCell>
        <mxCell id="Y6VR4jYJrnsZBAmpRnje-51" value="" style="endArrow=none;html=1;rounded=0;entryX=0;entryY=0.5;entryDx=0;entryDy=0;exitX=1.006;exitY=0.559;exitDx=0;exitDy=0;exitPerimeter=0;" edge="1" parent="1" source="Y6VR4jYJrnsZBAmpRnje-42" target="Y6VR4jYJrnsZBAmpRnje-43">
          <mxGeometry width="50" height="50" relative="1" as="geometry">
            <mxPoint x="670" y="294.67" as="sourcePoint" />
            <mxPoint x="610" y="261.67" as="targetPoint" />
          </mxGeometry>
        </mxCell>
        <mxCell id="Y6VR4jYJrnsZBAmpRnje-52" value="" style="endArrow=none;html=1;rounded=0;entryX=0;entryY=0.5;entryDx=0;entryDy=0;exitX=1;exitY=0.5;exitDx=0;exitDy=0;" edge="1" parent="1" source="Y6VR4jYJrnsZBAmpRnje-43" target="Y6VR4jYJrnsZBAmpRnje-4">
          <mxGeometry width="50" height="50" relative="1" as="geometry">
            <mxPoint x="700" y="321.67" as="sourcePoint" />
            <mxPoint x="750" y="271.67" as="targetPoint" />
          </mxGeometry>
        </mxCell>
        <mxCell id="Y6VR4jYJrnsZBAmpRnje-53" value="" style="endArrow=none;html=1;rounded=0;entryX=0;entryY=0.5;entryDx=0;entryDy=0;exitX=1;exitY=0.5;exitDx=0;exitDy=0;" edge="1" parent="1" source="Y6VR4jYJrnsZBAmpRnje-10" target="Y6VR4jYJrnsZBAmpRnje-1">
          <mxGeometry width="50" height="50" relative="1" as="geometry">
            <mxPoint x="-50" y="200" as="sourcePoint" />
            <mxPoint y="150" as="targetPoint" />
          </mxGeometry>
        </mxCell>
        <mxCell id="Y6VR4jYJrnsZBAmpRnje-54" value="" style="endArrow=none;html=1;rounded=0;entryX=1;entryY=0.5;entryDx=0;entryDy=0;exitX=0;exitY=0.5;exitDx=0;exitDy=0;" edge="1" parent="1" source="Y6VR4jYJrnsZBAmpRnje-10" target="Y6VR4jYJrnsZBAmpRnje-2">
          <mxGeometry width="50" height="50" relative="1" as="geometry">
            <mxPoint x="-50" y="200" as="sourcePoint" />
            <mxPoint y="150" as="targetPoint" />
          </mxGeometry>
        </mxCell>
        <mxCell id="Y6VR4jYJrnsZBAmpRnje-55" value="1" style="text;html=1;align=center;verticalAlign=middle;resizable=0;points=[];autosize=1;strokeColor=none;fillColor=none;" vertex="1" parent="1">
          <mxGeometry x="-145" y="138" width="30" height="30" as="geometry" />
        </mxCell>
        <mxCell id="Y6VR4jYJrnsZBAmpRnje-56" value="1" style="text;html=1;align=center;verticalAlign=middle;resizable=0;points=[];autosize=1;strokeColor=none;fillColor=none;" vertex="1" parent="1">
          <mxGeometry x="70" y="138" width="30" height="30" as="geometry" />
        </mxCell>
        <mxCell id="Y6VR4jYJrnsZBAmpRnje-57" value="N" style="text;html=1;align=center;verticalAlign=middle;resizable=0;points=[];autosize=1;strokeColor=none;fillColor=none;" vertex="1" parent="1">
          <mxGeometry x="875" y="489.67" width="30" height="30" as="geometry" />
        </mxCell>
        <mxCell id="Y6VR4jYJrnsZBAmpRnje-58" value="1" style="text;html=1;align=center;verticalAlign=middle;resizable=0;points=[];autosize=1;strokeColor=none;fillColor=none;" vertex="1" parent="1">
          <mxGeometry x="875" y="349.67" width="30" height="30" as="geometry" />
        </mxCell>
        <mxCell id="Y6VR4jYJrnsZBAmpRnje-59" value="P" style="text;html=1;align=center;verticalAlign=middle;resizable=0;points=[];autosize=1;strokeColor=none;fillColor=none;" vertex="1" parent="1">
          <mxGeometry x="605" y="265" width="30" height="30" as="geometry" />
        </mxCell>
        <mxCell id="Y6VR4jYJrnsZBAmpRnje-60" value="1" style="text;html=1;align=center;verticalAlign=middle;resizable=0;points=[];autosize=1;strokeColor=none;fillColor=none;" vertex="1" parent="1">
          <mxGeometry x="770" y="265" width="30" height="30" as="geometry" />
        </mxCell>
        <mxCell id="Y6VR4jYJrnsZBAmpRnje-61" value="1" style="text;html=1;align=center;verticalAlign=middle;resizable=0;points=[];autosize=1;strokeColor=none;fillColor=none;" vertex="1" parent="1">
          <mxGeometry x="190" y="220" width="30" height="30" as="geometry" />
        </mxCell>
        <mxCell id="Y6VR4jYJrnsZBAmpRnje-62" value="1" style="text;html=1;align=center;verticalAlign=middle;resizable=0;points=[];autosize=1;strokeColor=none;fillColor=none;" vertex="1" parent="1">
          <mxGeometry x="195" y="328" width="30" height="30" as="geometry" />
        </mxCell>
        <mxCell id="Y6VR4jYJrnsZBAmpRnje-63" value="1" style="text;html=1;align=center;verticalAlign=middle;resizable=0;points=[];autosize=1;strokeColor=none;fillColor=none;" vertex="1" parent="1">
          <mxGeometry x="280" y="370" width="30" height="30" as="geometry" />
        </mxCell>
        <mxCell id="Y6VR4jYJrnsZBAmpRnje-64" value="1" style="text;html=1;align=center;verticalAlign=middle;resizable=0;points=[];autosize=1;strokeColor=none;fillColor=none;" vertex="1" parent="1">
          <mxGeometry x="280" y="138" width="30" height="30" as="geometry" />
        </mxCell>
        <mxCell id="Y6VR4jYJrnsZBAmpRnje-66" value="M" style="text;html=1;align=center;verticalAlign=middle;resizable=0;points=[];autosize=1;strokeColor=none;fillColor=none;" vertex="1" parent="1">
          <mxGeometry x="525" y="329.67" width="30" height="30" as="geometry" />
        </mxCell>
        <mxCell id="Y6VR4jYJrnsZBAmpRnje-67" value="K" style="text;html=1;align=center;verticalAlign=middle;resizable=0;points=[];autosize=1;strokeColor=none;fillColor=none;" vertex="1" parent="1">
          <mxGeometry x="525" y="221.67" width="30" height="30" as="geometry" />
        </mxCell>
        <mxCell id="Y6VR4jYJrnsZBAmpRnje-68" value="Возраст" style="ellipse;whiteSpace=wrap;html=1;" vertex="1" parent="1">
          <mxGeometry x="320" y="260.01" width="94.99" height="63.33" as="geometry" />
        </mxCell>
        <mxCell id="Y6VR4jYJrnsZBAmpRnje-69" value="" style="endArrow=none;html=1;rounded=0;entryX=0;entryY=0.5;entryDx=0;entryDy=0;exitX=1;exitY=0.5;exitDx=0;exitDy=0;" edge="1" parent="1" source="Y6VR4jYJrnsZBAmpRnje-68" target="Y6VR4jYJrnsZBAmpRnje-42">
          <mxGeometry width="50" height="50" relative="1" as="geometry">
            <mxPoint x="340" y="290" as="sourcePoint" />
            <mxPoint x="390" y="240" as="targetPoint" />
          </mxGeometry>
        </mxCell>
      </root>
    </mxGraphModel>
  </diagram>
</mxfile>
